<svg width="24px" height="24px" viewBox="0 0 24 24" version="1.1">
<g id="surface1">
<path style=" stroke:none;fill-rule:nonzero;fill:rgb(7.45098%,27.058824%,38.823529%);fill-opacity:1;" d="M 9.1875 8.585938 L 10.3125 8.585938 L 10.3125 17.585938 L 9.1875 17.585938 Z M 9.1875 8.585938 "/>
<path style=" stroke:none;fill-rule:nonzero;fill:rgb(7.45098%,27.058824%,38.823529%);fill-opacity:1;" d="M 11.4375 8.585938 L 12.5625 8.585938 L 12.5625 17.585938 L 11.4375 17.585938 Z M 11.4375 8.585938 "/>
<path style=" stroke:none;fill-rule:nonzero;fill:rgb(7.45098%,27.058824%,38.823529%);fill-opacity:1;" d="M 13.6875 8.585938 L 14.8125 8.585938 L 14.8125 17.585938 L 13.6875 17.585938 Z M 13.6875 8.585938 "/>
<path style=" stroke:none;fill-rule:nonzero;fill:rgb(7.45098%,27.058824%,38.823529%);fill-opacity:1;" d="M 4.6875 5.210938 L 19.3125 5.210938 L 19.3125 6.335938 L 4.6875 6.335938 Z M 4.6875 5.210938 "/>
<path style=" stroke:none;fill-rule:nonzero;fill:rgb(7.45098%,27.058824%,38.823529%);fill-opacity:1;" d="M 14.773438 5.773438 L 13.726562 5.773438 L 13.726562 4.648438 C 13.726562 4.3125 13.460938 4.050781 13.125 4.050781 L 10.875 4.050781 C 10.539062 4.050781 10.273438 4.3125 10.273438 4.648438 L 10.273438 5.773438 L 9.226562 5.773438 L 9.226562 4.648438 C 9.226562 3.75 9.976562 3 10.875 3 L 13.125 3 C 14.023438 3 14.773438 3.75 14.773438 4.648438 L 14.773438 5.773438 "/>
<path style=" stroke:none;fill-rule:nonzero;fill:rgb(7.45098%,27.058824%,38.823529%);fill-opacity:1;" d="M 15.375 20.960938 L 8.625 20.960938 C 7.726562 20.960938 6.9375 20.210938 6.863281 19.3125 L 5.8125 5.8125 L 6.9375 5.738281 L 7.988281 19.238281 C 8.023438 19.574219 8.324219 19.835938 8.625 19.835938 L 15.375 19.835938 C 15.710938 19.835938 16.011719 19.539062 16.011719 19.238281 L 17.0625 5.738281 L 18.1875 5.8125 L 17.136719 19.3125 C 17.0625 20.25 16.273438 20.960938 15.375 20.960938 "/>
</g>
</svg>
