<svg width="42pt" height="32pt" viewBox="0 0 42 47">
<g id="surface1">
<path style=" stroke:none;fill-rule:nonzero;fill:rgb(100%,100%,100%);fill-opacity:1;" d="M 41.433594 35.472656 C 41.660156 35.363281 41.773438 35.136719 41.773438 34.800781 C 41.773438 34.800781 41.773438 8.394531 41.773438 7.945312 C 41.773438 7.496094 41.433594 7.160156 40.976562 7.160156 C 40.75 7.160156 40.636719 7.273438 40.523438 7.386719 C 40.523438 7.386719 38.707031 8.839844 38.480469 9.0625 C 38.253906 9.175781 38.027344 9.289062 37.800781 9.289062 C 37.574219 9.289062 37.460938 9.289062 37.234375 9.175781 C 36.890625 8.953125 21.339844 0.113281 21.339844 0.113281 C 21.226562 0 21.113281 0 21 0 C 20.886719 0 20.660156 0 20.546875 0.113281 L 0.566406 11.527344 C 0.339844 11.636719 0.226562 11.863281 0.226562 12.085938 C 0.226562 12.085938 0.226562 38.496094 0.226562 38.941406 C 0.226562 39.390625 0.566406 39.726562 1.023438 39.726562 C 1.25 39.726562 1.363281 39.613281 1.476562 39.503906 C 1.476562 39.503906 3.292969 38.046875 3.519531 37.824219 C 3.746094 37.710938 3.972656 37.601562 4.199219 37.601562 C 4.425781 37.601562 4.539062 37.601562 4.765625 37.710938 C 5.109375 37.9375 20.546875 46.777344 20.546875 46.777344 C 20.660156 47 20.886719 47 21 47 C 21.113281 47 21.339844 47 21.453125 46.886719 Z M 21.339844 41.179688 C 21.226562 41.292969 21.113281 41.292969 20.886719 41.292969 C 20.773438 41.292969 20.660156 41.292969 20.546875 41.179688 L 8.398438 34.464844 C 8.285156 34.464844 8.171875 34.355469 8.058594 34.355469 C 7.832031 34.355469 7.71875 34.355469 7.605469 34.464844 C 7.605469 34.464844 6.582031 35.25 6.46875 35.472656 C 6.355469 35.585938 6.128906 35.699219 6.015625 35.699219 C 5.5625 35.699219 5.222656 35.363281 5.222656 34.914062 L 5.222656 14.996094 C 5.222656 14.769531 5.335938 14.546875 5.5625 14.324219 C 5.5625 14.324219 20.660156 5.820312 20.660156 5.820312 C 20.773438 5.707031 20.886719 5.707031 21.113281 5.707031 C 21.226562 5.707031 21.339844 5.707031 21.453125 5.820312 L 33.601562 12.644531 C 33.714844 12.644531 33.828125 12.757812 33.941406 12.757812 C 34.167969 12.757812 34.28125 12.757812 34.394531 12.644531 C 34.394531 12.644531 35.417969 11.863281 35.53125 11.636719 C 35.644531 11.527344 35.871094 11.414062 35.984375 11.414062 C 36.4375 11.414062 36.777344 11.75 36.777344 12.199219 L 36.777344 32.117188 C 36.777344 32.339844 36.664062 32.5625 36.4375 32.789062 C 36.4375 32.675781 21.339844 41.179688 21.339844 41.179688 Z M 21.339844 41.179688 "/>
</g>
</svg>
