<svg height="200px" viewBox="0 0 230 170">
<g id="surface1">
<path style=" stroke:none;fill-rule:nonzero;fill:#333399;fill-opacity:1;" d="M 93.148438 31.730469 L 104.484375 31.730469 L 104.484375 102.390625 L 93.148438 102.390625 Z M 93.148438 31.730469 "/>
<path style=" stroke:none;fill-rule:nonzero;fill:#6666CC;fill-opacity:1;" d="M 98.816406 167.789062 C 62.867188 167.789062 33.625 138.542969 33.625 102.59375 C 33.625 81.492188 43.941406 61.597656 61.226562 49.375 L 67.773438 58.632812 C 53.488281 68.734375 44.960938 85.171875 44.960938 102.59375 C 44.960938 132.292969 69.121094 156.449219 98.8125 156.449219 C 128.507812 156.449219 152.664062 132.292969 152.664062 102.59375 C 152.664062 85.171875 144.140625 68.734375 129.859375 58.632812 L 136.402344 49.375 C 153.6875 61.601562 164.007812 81.496094 164.007812 102.59375 C 164.007812 138.542969 134.765625 167.789062 98.816406 167.789062 Z M 98.816406 167.789062 "/>
</g>
</svg>
